# xmcd
#
# Track frame offsets: 
#        182
#        11382
#        21727
#        34907
#        43600
#        54687
#        63917
#        73160
#        106462
#        118627
#        129000
#        139305
#        153920
#        162832
#        179097
#        188495
#
# Disc length: 2640 seconds
#
# Revision: 3
# Processed by: cddbd v1.5.2PL0 Copyright (c) Steve Scherf et al.
# Submitted via: ExactAudioCopy v1.0b3
#
DISCID=df0a4e10
DTITLE=Loretta Lynn - The Concert Collection-Loretta Lynn
DYEAR=1996
DGENRE=Country
TTITLE0=Hey Loretta (live)
TTITLE1=You're Lookin' At Country (live)
TTITLE2=Let Your Love Flow (live)
TTITLE3=We've Come A Long Way Baby (live)
TTITLE4=Spring Fever (live)
TTITLE5=Your Squaw Is On The Warpath (live)
TTITLE6=First City(live)
TTITLE7=a) I Fall To Pieces, b) Walkin' After Midnight, c) Crasy, d) B
TTITLE7=ack In Baby's Arms, e) She's Got You (live)
TTITLE8=Me And Bobby McGee (live)
TTITLE9=Somebody Somewhere (Dont' Know What He's Missin) [live]
TTITLE10=Out Of My Head (live)
TTITLE11=Coal Miner's Daughter (live)
TTITLE12=They Don't Make 'Em Like My Daddy (live)
TTITLE13=a) One's On The Way, b) The Pill (live)
TTITLE14=Y'all Come (live)
TTITLE15=You Ain't Woman Enough (live)
EXTD=
EXTT0=
EXTT1=
EXTT2=
EXTT3=
EXTT4=
EXTT5=
EXTT6=
EXTT7=
EXTT8=
EXTT9=
EXTT10=
EXTT11=
EXTT12=
EXTT13=
EXTT14=
EXTT15=
PLAYORDER=
